<svg width="203" height="72" viewBox="0 0 203 72" fill="none" xmlns="http://www.w3.org/2000/svg">
<g filter="url(#filter0_d_1_149)">
<g clip-path="url(#clip0_1_149)">
<rect width="138.76" height="84.5322" rx="6.37979" transform="matrix(0.913545 -0.406737 0.659347 0.751838 -10.1602 11.41)" fill="#5B82FF"/>
<path d="M14.0728 21.6741C13.5084 21.9253 12.9361 22.0657 12.3559 22.0951C11.7757 22.1245 11.2265 22.042 10.7083 21.8476C10.1922 21.6441 9.74843 21.3307 9.37718 20.9074L9.23795 20.7486L10.6097 20.1379L10.7179 20.2614C11.0067 20.5906 11.378 20.7932 11.832 20.869C12.2808 20.939 12.7338 20.8722 13.191 20.6686C13.6554 20.4619 13.9327 20.2117 14.0229 19.9181C14.1202 19.6213 14.0477 19.3348 13.8054 19.0584L13.728 18.9702C13.563 18.7821 13.3718 18.6547 13.1544 18.588C12.9369 18.5213 12.7086 18.5044 12.4693 18.5374C12.2248 18.5644 11.9811 18.6321 11.7382 18.7402L10.2379 19.4082L9.1551 18.1734L10.6489 16.0368L10.5251 15.8957L6.7315 17.5847L5.84976 16.5793L11.1651 14.2128L12.48 15.7121L11.0851 17.7066L11.2088 17.8477L11.6053 17.6712C11.9411 17.5217 12.3152 17.4328 12.7275 17.4045C13.147 17.3731 13.5634 17.4289 13.9768 17.5718C14.3851 17.7089 14.7517 17.9626 15.0765 18.333L15.1694 18.4389C15.52 18.8387 15.7089 19.241 15.7361 19.6459C15.7582 20.0448 15.6271 20.422 15.3428 20.7775C15.0605 21.1239 14.6372 21.4228 14.0728 21.6741ZM23.0553 17.5031L21.9569 16.2507L18.2705 17.8921L17.1258 16.5868L16.548 11.8161L19.0128 10.7187L22.4469 14.6346L23.69 14.0811L24.5718 15.0866L23.3287 15.64L24.427 16.8924L23.0553 17.5031ZM18.6962 16.3045L21.0752 15.2453L18.2753 12.0527L18.0824 12.1385L18.5724 16.1634L18.6962 16.3045ZM28.8298 15.1038C28.2439 15.3646 27.6619 15.5052 27.0837 15.5256C26.5127 15.5427 25.9762 15.4464 25.4743 15.2366C24.9724 15.0267 24.541 14.716 24.18 14.3044L24.1027 14.2162L25.4958 13.596L25.5654 13.6754C25.8232 13.9693 26.1628 14.1697 26.5842 14.2764C27.0076 14.374 27.4551 14.3179 27.9266 14.1079C28.3981 13.898 28.6687 13.6345 28.7382 13.3174C28.8098 12.9912 28.6986 12.6605 28.4047 12.3254L28.3274 12.2372C28.0386 11.9079 27.6806 11.7035 27.2532 11.624C26.833 11.5413 26.4336 11.5843 26.0549 11.7528C25.8477 11.8451 25.6969 11.9449 25.6024 12.0524C25.5079 12.1599 25.4488 12.268 25.4249 12.3767C25.401 12.4854 25.3915 12.5878 25.3962 12.6838L23.7352 13.4234L20.7032 9.96611L25.8257 7.68545L26.7229 8.70851L22.9721 10.3785L24.2947 11.8866L24.4876 11.8007C24.492 11.6925 24.524 11.576 24.5836 11.4514C24.6432 11.3268 24.7488 11.198 24.9004 11.0651C25.0521 10.9321 25.2601 10.8068 25.5244 10.6891C25.9674 10.4919 26.438 10.3887 26.9365 10.3793C27.4349 10.37 27.9227 10.4675 28.4 10.6719C28.8793 10.8673 29.3098 11.1825 29.6913 11.6176L29.7842 11.7235C30.1657 12.1586 30.3814 12.5858 30.4312 13.0051C30.4882 13.4212 30.3833 13.8112 30.1165 14.1753C29.8445 14.5335 29.4156 14.843 28.8298 15.1038ZM35.4365 11.9906L34.3382 10.7383L30.6517 12.3796L29.507 11.0743L28.9292 6.30365L31.394 5.20626L34.8281 9.12212L36.0712 8.56865L36.953 9.57407L35.7099 10.1275L36.8082 11.3799L35.4365 11.9906ZM31.0774 10.7921L33.4564 9.73284L30.6565 6.54018L30.4636 6.62606L30.9536 10.6509L31.0774 10.7921ZM43.7283 8.47054C42.8424 8.86496 41.9563 8.98155 41.0698 8.82029C40.1782 8.65316 39.374 8.16096 38.6573 7.34368L37.296 5.79145C36.5999 4.9977 36.3393 4.27575 36.5142 3.62561C36.6839 2.96959 37.2117 2.44437 38.0976 2.04994C38.9906 1.65234 39.8845 1.54457 40.7793 1.72665C41.6761 1.89966 42.4725 2.38305 43.1686 3.1768L44.5299 4.72903C45.2466 5.54631 45.515 6.27707 45.335 6.92133C45.1569 7.55653 44.6214 8.07293 43.7283 8.47054ZM42.8466 7.46512C43.3824 7.22655 43.6696 6.93107 43.7083 6.57868C43.7541 6.2231 43.581 5.82189 43.1891 5.37503L41.7505 3.73461C41.3535 3.28187 40.9115 3.00447 40.4247 2.90239C39.9398 2.79126 39.458 2.84225 38.9793 3.05537C38.4864 3.27485 38.2063 3.56714 38.1391 3.93226C38.079 4.2942 38.2398 4.69272 38.6213 5.12781L40.0599 6.76824C40.4673 7.23273 40.9027 7.52532 41.3661 7.64599C41.8316 7.75761 42.3251 7.69732 42.8466 7.46512ZM50.2486 5.56753C49.3627 5.96195 48.4765 6.07854 47.5901 5.91728C46.6985 5.75015 45.8943 5.25794 45.1776 4.44067L43.8163 2.88844C43.1202 2.09468 42.8596 1.37274 43.0345 0.722597C43.2042 0.0665778 43.732 -0.458644 44.6179 -0.853068C45.5109 -1.25067 46.4048 -1.35844 47.2996 -1.17636C48.1964 -1.00335 48.9928 -0.519965 49.6889 0.273789L51.0502 1.82602C51.7669 2.64329 52.0353 3.37406 51.8552 4.01832C51.6772 4.65352 51.1416 5.16992 50.2486 5.56753ZM49.3669 4.5621C49.9027 4.32354 50.1899 4.02806 50.2286 3.67567C50.2743 3.32009 50.1013 2.91887 49.7094 2.47202L48.2708 0.831593C47.8737 0.378859 47.4318 0.101455 46.9449 -0.000617832C46.46 -0.111752 45.9783 -0.0607609 45.4996 0.152355C45.0067 0.371833 44.7266 0.664131 44.6593 1.02925C44.5993 1.39119 44.76 1.78971 45.1416 2.2248L46.5802 3.86523C46.9876 4.32972 47.423 4.62231 47.8864 4.74298C48.3519 4.8546 48.8453 4.79431 49.3669 4.5621ZM56.7689 2.66452C55.883 3.05894 54.9968 3.17552 54.1104 3.01427C53.2187 2.84714 52.4146 2.35493 51.6978 1.53766L50.3366 -0.0145727C49.6405 -0.808327 49.3798 -1.53027 49.5547 -2.18041C49.7244 -2.83643 50.2522 -3.36165 51.1381 -3.75608C52.0312 -4.15368 52.9251 -4.26145 53.8199 -4.07937C54.7166 -3.90636 55.5131 -3.42298 56.2092 -2.62922L57.5704 -1.07699C58.2872 -0.259716 58.5555 0.47105 58.3755 1.11531C58.1974 1.75051 57.6619 2.26691 56.7689 2.66452ZM55.8871 1.65909C56.423 1.42053 56.7102 1.12505 56.7488 0.772656C56.7946 0.417079 56.6216 0.0158635 56.2297 -0.430991L54.7911 -2.07142C54.394 -2.52415 53.9521 -2.80156 53.4652 -2.90363C52.9803 -3.01476 52.4985 -2.96377 52.0199 -2.75066C51.5269 -2.53118 51.2468 -2.23888 51.1796 -1.87376C51.1195 -1.51182 51.2803 -1.11331 51.6619 -0.678211L53.1005 0.962216C53.5078 1.42671 53.9432 1.71929 54.4067 1.83997C54.8721 1.95159 55.3656 1.89129 55.8871 1.65909ZM61.3409 -1.23508L60.552 -2.13467L61.5379 -2.57363L61.1202 -3.04988L60.1343 -2.61092L59.3454 -3.51051L60.3313 -3.94947L57.98 -6.6306L61.1092 -8.0238C61.5736 -8.23056 62.0427 -8.34131 62.5165 -8.35606C62.9975 -8.37399 63.454 -8.29519 63.8861 -8.11967C64.313 -7.95003 64.6811 -7.68882 64.9905 -7.33604L65.0988 -7.21257C65.4082 -6.85979 65.5727 -6.50792 65.5924 -6.15697C65.6193 -5.8092 65.5159 -5.48524 65.2825 -5.18509C65.0439 -4.89081 64.6995 -4.64348 64.2494 -4.44309L62.5348 -3.67969L62.9525 -3.20343L65.3315 -4.26265L66.1204 -3.36306L63.7414 -2.30384L64.8087 -1.08675L63.3942 -0.456947L62.3268 -1.67404L61.3409 -1.23508ZM61.7459 -4.57927L63.3212 -5.28065C63.6427 -5.42379 63.8441 -5.6075 63.9256 -5.8318C64.0019 -6.06197 63.9369 -6.29466 63.7306 -6.52984L63.6533 -6.61804C63.4419 -6.8591 63.1769 -7.00272 62.8582 -7.04889C62.5467 -7.09824 62.2267 -7.04976 61.898 -6.90344L60.3227 -6.20206L61.7459 -4.57927Z" fill="white"/>
<path d="M41.0508 77.7659L28.1844 63.0946L42.291 56.814L55.1574 71.4852L51.3873 73.1638L40.7915 61.0816L34.225 64.0051L44.8209 76.0873L41.0508 77.7659ZM68.3835 55.3681C69.3806 56.5051 70.1129 57.6172 70.5802 58.7043C71.0522 59.7703 71.233 60.7946 71.1226 61.7771C71.0288 62.7522 70.5971 63.6586 69.8275 64.4965C69.0746 65.327 67.9741 66.0646 66.526 66.7093C65.0779 67.354 63.6567 67.7392 62.2624 67.8647C60.8728 67.9692 59.5401 67.8482 58.2643 67.502C56.9932 67.1346 55.7744 66.5629 54.608 65.787C53.4582 65.0038 52.3847 64.0436 51.3876 62.9066C50.0541 61.3861 49.1944 59.9308 48.8085 58.5407C48.4393 57.1432 48.6086 55.8583 49.3163 54.6861C50.0287 53.4927 51.3587 52.4625 53.3061 51.5954C55.2369 50.7358 57.1028 50.3431 58.9038 50.4174C60.6928 50.4781 62.3855 50.9435 63.9818 51.8137C65.5828 52.6628 67.05 53.8476 68.3835 55.3681ZM55.3754 61.1597C56.2764 62.1871 57.2094 63.0003 58.1744 63.5992C59.1394 64.1981 60.129 64.548 61.1432 64.6488C62.1574 64.7496 63.1888 64.5666 64.2374 64.0997C65.3193 63.618 66.0107 63.034 66.3114 62.3477C66.6289 61.654 66.613 60.8706 66.2639 59.9975C65.9314 59.117 65.3147 58.163 64.4137 57.1356C63.0561 55.5877 61.6434 54.531 60.1755 53.9655C58.7075 53.4 57.1746 53.473 55.5767 54.1845C54.5114 54.6588 53.82 55.2428 53.5026 55.9365C53.1852 56.6301 53.1927 57.4173 53.5252 58.2978C53.8577 59.1783 54.4744 60.1323 55.3754 61.1597ZM75.9226 41.8402L78.1751 44.4087L70.6849 47.7436L81.2988 59.8463L77.5287 61.5249L64.6623 46.8536L75.9226 41.8402ZM99.6807 51.6622L95.3189 48.7471L88.8274 51.6373L90.5925 55.7085L86.5228 57.5204L79.8941 39.9862L84.5131 37.9297L103.75 49.8502L99.6807 51.6622ZM87.8419 43.7047C87.5544 43.5089 87.1879 43.2626 86.7424 42.9657C86.2969 42.6688 85.8454 42.3651 85.3879 42.0545C84.9304 41.7439 84.5399 41.4702 84.2164 41.2333C84.3734 41.5443 84.5572 41.9386 84.7678 42.4163C84.9831 42.8728 85.1863 43.3157 85.3775 43.7448C85.5733 44.1529 85.704 44.4471 85.7696 44.6274L87.4876 48.6053L92.1315 46.5377L87.8419 43.7047ZM127.43 39.3073L105.009 49.2896L92.1431 34.6184L95.9132 32.9398L106.509 45.022L112.052 42.5542L101.456 30.472L105.251 28.7824L115.847 40.8646L121.39 38.3968L110.794 26.3146L114.564 24.636L127.43 39.3073ZM141.19 33.1808L130.929 37.7496L118.062 23.0783L128.324 18.5096L130.559 21.0575L124.067 23.9477L126.896 27.1738L132.938 24.4836L135.173 27.0316L129.131 29.7217L132.446 33.5025L138.938 30.6123L141.19 33.1808ZM158.507 25.4709L154.737 27.1495L149.187 20.8207L142.121 23.9666L147.671 30.2954L143.901 31.9739L131.035 17.3027L134.805 15.6241L139.851 21.3775L146.916 18.2317L141.871 12.4782L145.641 10.7997L158.507 25.4709ZM171.722 9.35906C172.719 10.496 173.451 11.6081 173.918 12.6952C174.39 13.7613 174.571 14.7855 174.461 15.768C174.367 16.7431 173.935 17.6496 173.166 18.4874C172.413 19.3179 171.312 20.0555 169.864 20.7002C168.416 21.345 166.995 21.7301 165.6 21.8557C164.211 21.9601 162.878 21.8392 161.602 21.4929C160.331 21.1255 159.112 20.5539 157.946 19.778C156.796 18.9947 155.723 18.0345 154.726 16.8976C153.392 15.377 152.532 13.9217 152.147 12.5316C151.777 11.1341 151.947 9.84925 152.654 8.677C153.367 7.48364 154.697 6.45343 156.644 5.58636C158.575 4.72671 160.441 4.33404 162.242 4.40837C164.031 4.46899 165.723 4.93441 167.32 5.8046C168.921 6.65369 170.388 7.83851 171.722 9.35906ZM158.713 15.1506C159.614 16.178 160.547 16.9912 161.512 17.5901C162.477 18.189 163.467 18.5389 164.481 18.6397C165.495 18.7406 166.527 18.5575 167.575 18.0906C168.657 17.6089 169.349 17.0249 169.649 16.3387C169.967 15.645 169.951 14.8616 169.602 13.9884C169.269 13.1079 168.653 12.1539 167.752 11.1265C166.394 9.5786 164.981 8.52189 163.513 7.95644C162.046 7.39098 160.513 7.46397 158.915 8.17541C157.849 8.6497 157.158 9.23369 156.841 9.92739C156.523 10.6211 156.531 11.4082 156.863 12.2887C157.196 13.1693 157.812 14.1232 158.713 15.1506Z" fill="white"/>
<line y1="-0.488774" x2="68.4284" y2="-0.488774" transform="matrix(0.913545 -0.406737 0.659347 0.751838 6.36282 21.5876)" stroke="#5B82FF" stroke-width="0.977548"/>
<line y1="-0.488774" x2="68.4284" y2="-0.488774" transform="matrix(0.913545 -0.406737 0.659347 0.751838 6.36282 21.5876)" stroke="#5B82FF" stroke-width="0.977548"/>
<line y1="-0.488774" x2="68.4284" y2="-0.488774" transform="matrix(0.913545 -0.406737 0.659347 0.751838 5.07373 20.1177)" stroke="#5B82FF" stroke-width="0.977548"/>
<line y1="-0.488774" x2="68.4284" y2="-0.488774" transform="matrix(0.913545 -0.406737 0.659347 0.751838 5.07373 20.1177)" stroke="#5B82FF" stroke-width="0.977548"/>
<line y1="-0.488774" x2="68.4284" y2="-0.488774" transform="matrix(0.913545 -0.406737 0.659347 0.751838 5.71828 20.8527)" stroke="white" stroke-width="0.977548"/>
</g>
<rect x="0.313585" y="0.0688023" width="138.362" height="84.1334" rx="6.18042" transform="matrix(0.913545 -0.406737 0.659347 0.751838 -10.1784 11.5546)" stroke="url(#paint0_radial_1_149)" stroke-width="0.398737"/>
<rect x="0.313585" y="0.0688023" width="138.362" height="84.1334" rx="6.18042" transform="matrix(0.913545 -0.406737 0.659347 0.751838 -10.1784 11.5546)" stroke="url(#paint1_radial_1_149)" stroke-width="0.398737"/>
<rect x="0.313585" y="0.0688023" width="138.362" height="84.1334" rx="6.18042" transform="matrix(0.913545 -0.406737 0.659347 0.751838 -10.1784 11.5546)" stroke="url(#paint2_radial_1_149)" stroke-width="0.398737"/>
</g>
<defs>
<filter id="filter0_d_1_149" x="-53.0073" y="-66.4525" width="255.952" height="193.446" filterUnits="userSpaceOnUse" color-interpolation-filters="sRGB">
<feFlood flood-opacity="0" result="BackgroundImageFix"/>
<feColorMatrix in="SourceAlpha" type="matrix" values="0 0 0 0 0 0 0 0 0 0 0 0 0 0 0 0 0 0 127 0" result="hardAlpha"/>
<feOffset dx="-6.12102" dy="15.3025"/>
<feGaussianBlur stdDeviation="18.363"/>
<feComposite in2="hardAlpha" operator="out"/>
<feColorMatrix type="matrix" values="0 0 0 0 0 0 0 0 0 0 0 0 0 0 0 0 0 0 0.3 0"/>
<feBlend mode="normal" in2="BackgroundImageFix" result="effect1_dropShadow_1_149"/>
<feBlend mode="normal" in="SourceGraphic" in2="effect1_dropShadow_1_149" result="shape"/>
</filter>
<radialGradient id="paint0_radial_1_149" cx="0" cy="0" r="1" gradientUnits="userSpaceOnUse" gradientTransform="translate(168.311 31.9453) rotate(174.425) scale(227.633 57.6853)">
<stop stop-color="white"/>
<stop offset="1" stop-color="white" stop-opacity="0"/>
</radialGradient>
<radialGradient id="paint1_radial_1_149" cx="0" cy="0" r="1" gradientUnits="userSpaceOnUse" gradientTransform="translate(-12.4199 -49.1466) rotate(30.6396) scale(133.401 80.5945)">
<stop stop-color="white"/>
<stop offset="1" stop-color="white" stop-opacity="0"/>
</radialGradient>
<radialGradient id="paint2_radial_1_149" cx="0" cy="0" r="1" gradientUnits="userSpaceOnUse" gradientTransform="translate(-55.6755 114.184) rotate(-5.33944) scale(170.765 43.0876)">
<stop stop-color="white"/>
<stop offset="1" stop-color="white" stop-opacity="0"/>
</radialGradient>
<clipPath id="clip0_1_149">
<rect width="138.76" height="84.5322" rx="6.37979" transform="matrix(0.913545 -0.406737 0.659347 0.751838 -10.1602 11.41)" fill="white"/>
</clipPath>
</defs>
</svg>
