<svg width="208" height="72" viewBox="0 0 208 72" fill="none" xmlns="http://www.w3.org/2000/svg">
<g filter="url(#filter0_d_3_1929)">
<g clip-path="url(#clip0_3_1929)">
<rect width="138.768" height="84.5368" rx="6.38013" transform="matrix(0.913545 -0.406737 0.659347 0.751838 -10.1602 11.4072)" fill="url(#paint0_linear_3_1929)"/>
<g filter="url(#filter1_f_3_1929)">
<path d="M90.7534 55.8436C55.5617 74.1179 19.0053 76.7411 13.741 76.1108L36.251 101.778L206.973 25.7681L173.476 -12.4278C169.875 5.74586 125.945 37.5694 90.7534 55.8436Z" fill="url(#paint1_linear_3_1929)"/>
</g>
<path d="M14.0736 21.6713C13.5092 21.9226 12.9369 22.063 12.3567 22.0924C11.7765 22.1218 11.2273 22.0393 10.7091 21.8449C10.1928 21.6414 9.74908 21.328 9.37781 20.9046L9.23858 20.7458L10.6104 20.1351L10.7186 20.2586C11.0074 20.5878 11.3788 20.7904 11.8327 20.8663C12.2816 20.9363 12.7346 20.8695 13.1919 20.6659C13.6563 20.4591 13.9336 20.2089 14.0238 19.9153C14.1211 19.6185 14.0486 19.3319 13.8063 19.0556L13.7289 18.9674C13.5639 18.7792 13.3727 18.6518 13.1552 18.5851C12.9378 18.5184 12.7094 18.5015 12.4701 18.5345C12.2256 18.5616 11.9819 18.6292 11.739 18.7373L10.2386 19.4053L9.15571 18.1705L10.6496 16.0338L10.5258 15.8927L6.73199 17.5818L5.8502 16.5763L11.1658 14.2096L12.4808 15.709L11.0858 17.7037L11.2096 17.8448L11.6061 17.6682C11.9419 17.5187 12.316 17.4298 12.7283 17.4016C13.1478 17.3702 13.5643 17.4259 13.9777 17.5689C14.386 17.706 14.7526 17.9597 15.0775 18.3302L15.1703 18.436C15.5209 18.8358 15.7099 19.2382 15.7371 19.643C15.7592 20.042 15.628 20.4192 15.3437 20.7747C15.0614 21.1212 14.6381 21.42 14.0736 21.6713ZM23.0566 17.5002L21.9583 16.2477L18.2716 17.8891L17.1268 16.5838L16.549 11.8129L19.0139 10.7154L22.4483 14.6315L23.6914 14.078L24.5732 15.0835L23.33 15.637L24.4284 16.8894L23.0566 17.5002ZM18.6973 16.3015L21.0765 15.2423L18.2764 12.0494L18.0835 12.1353L18.5735 16.1604L18.6973 16.3015ZM28.8314 15.1007C28.2456 15.3616 27.6635 15.5022 27.0853 15.5225C26.5142 15.5397 25.9777 15.4433 25.4758 15.2335C24.9739 15.0236 24.5424 14.7129 24.1815 14.3013L24.1041 14.2131L25.4973 13.5928L25.5669 13.6722C25.8248 13.9662 26.1644 14.1666 26.5858 14.2733C27.0092 14.3709 27.4567 14.3148 27.9282 14.1048C28.3998 13.8949 28.6703 13.6313 28.7399 13.3142C28.8115 12.988 28.7003 12.6573 28.4064 12.3222L28.329 12.234C28.0403 11.9047 27.6822 11.7003 27.2548 11.6208C26.8346 11.538 26.4351 11.581 26.0565 11.7496C25.8493 11.8418 25.6984 11.9417 25.6039 12.0492C25.5094 12.1567 25.4503 12.2648 25.4264 12.3735C25.4025 12.4822 25.393 12.5846 25.3977 12.6806L23.7366 13.4202L20.7045 9.96276L25.8272 7.68198L26.7244 8.70509L22.9735 10.3751L24.2962 11.8833L24.4891 11.7975C24.4935 11.6892 24.5255 11.5728 24.5851 11.4481C24.6446 11.3235 24.7503 11.1947 24.9019 11.0618C25.0536 10.9288 25.2616 10.8035 25.5259 10.6858C25.9689 10.4886 26.4396 10.3853 26.938 10.376C27.4365 10.3666 27.9244 10.4642 28.4017 10.6686C28.881 10.864 29.3115 11.1793 29.6931 11.6144L29.7859 11.7202C30.1675 12.1553 30.3832 12.5826 30.433 13.0019C30.49 13.418 30.3851 13.8081 30.1182 14.1722C29.8462 14.5304 29.4173 14.8399 28.8314 15.1007ZM35.4385 11.9874L34.3402 10.735L30.6535 12.3764L29.5087 11.071L28.9309 6.3001L31.3958 5.20265L34.8302 9.11872L36.0733 8.56523L36.9551 9.5707L35.7119 10.1242L36.8103 11.3766L35.4385 11.9874ZM31.0792 10.7888L33.4584 9.72948L30.6583 6.53664L30.4654 6.62253L30.9554 10.6476L31.0792 10.7888ZM43.7308 8.46711C42.8449 8.86155 41.9587 8.97815 41.0722 8.81688C40.1805 8.64974 39.3763 8.15751 38.6595 7.34019L37.2982 5.78787C36.602 4.99408 36.3414 4.27209 36.5163 3.62192C36.686 2.96586 37.2139 2.44061 38.0998 2.04616C38.9929 1.64854 39.8868 1.54077 40.7817 1.72285C41.6785 1.89587 42.4749 2.37929 43.1711 3.17308L44.5324 4.7254C45.2492 5.54272 45.5176 6.27352 45.3375 6.91782C45.1595 7.55305 44.6239 8.06948 43.7308 8.46711ZM42.849 7.46163C43.3849 7.22306 43.6721 6.92756 43.7108 6.57515C43.7566 6.21955 43.5835 5.81831 43.1916 5.37143L41.7529 3.73092C41.3558 3.27816 40.9139 3.00074 40.427 2.89866C39.9421 2.78752 39.4603 2.83851 38.9816 3.05164C38.4886 3.27113 38.2085 3.56345 38.1413 3.92859C38.0812 4.29054 38.242 4.68908 38.6235 5.1242L40.0622 6.76472C40.4696 7.22924 40.905 7.52184 41.3685 7.64252C41.834 7.75414 42.3275 7.69385 42.849 7.46163ZM50.2515 5.56394C49.3655 5.95838 48.4793 6.07498 47.5928 5.91371C46.7011 5.74657 45.8969 5.25434 45.1802 4.43702L43.8188 2.88471C43.1227 2.09091 42.862 1.36892 43.0369 0.718746C43.2066 0.0626911 43.7345 -0.462559 44.6204 -0.857004C45.5135 -1.25463 46.4075 -1.3624 47.3023 -1.18032C48.1991 -1.00729 48.9956 -0.523884 49.6917 0.269914L51.0531 1.82223C51.7698 2.63955 52.0382 3.37035 51.8582 4.01465C51.6801 4.64988 51.1445 5.16631 50.2515 5.56394ZM49.3697 4.55846C49.9055 4.31989 50.1928 4.02439 50.2314 3.67198C50.2772 3.31638 50.1041 2.91514 49.7122 2.46826L48.2735 0.827748C47.8765 0.374989 47.4345 0.0975705 46.9476 -0.00450824C46.4627 -0.115648 45.9809 -0.0646546 45.5022 0.148473C45.0092 0.367963 44.7291 0.660277 44.6619 1.02542C44.6018 1.38737 44.7626 1.78591 45.1442 2.22103L46.5829 3.86155C46.9902 4.32607 47.4257 4.61867 47.8891 4.73935C48.3546 4.85097 48.8481 4.79068 49.3697 4.55846ZM56.7721 2.66077C55.8861 3.05522 54.9999 3.17181 54.1134 3.01054C53.2218 2.8434 52.4175 2.35117 51.7008 1.53385L50.3394 -0.0184643C49.6433 -0.812262 49.3827 -1.53425 49.5575 -2.18442C49.7273 -2.84048 50.2551 -3.36573 51.141 -3.76017C52.0341 -4.1578 52.9281 -4.26557 53.8229 -4.08349C54.7197 -3.91046 55.5162 -3.42705 56.2123 -2.63326L57.5737 -1.08094C58.2905 -0.263621 58.5588 0.467185 58.3788 1.11148C58.2007 1.74671 57.6652 2.26314 56.7721 2.66077ZM55.8903 1.65529C56.4261 1.41672 56.7134 1.12122 56.752 0.768807C56.7978 0.413211 56.6248 0.0119737 56.2329 -0.434905L54.7942 -2.07542C54.3971 -2.52818 53.9551 -2.8056 53.4682 -2.90768C52.9833 -3.01882 52.5015 -2.96782 52.0228 -2.7547C51.5298 -2.53521 51.2497 -2.24289 51.1825 -1.87775C51.1224 -1.5158 51.2832 -1.11726 51.6648 -0.682138L53.1035 0.958378C53.5109 1.4229 53.9463 1.7155 54.4098 1.83618C54.8752 1.9478 55.3687 1.88751 55.8903 1.65529ZM61.3444 -1.23904L60.5554 -2.13868L61.5414 -2.57766L61.1237 -3.05394L60.1377 -2.61496L59.3487 -3.51459L60.3347 -3.95357L57.9833 -6.63485L61.1126 -8.02813C61.5771 -8.23489 62.0462 -8.34565 62.52 -8.3604C63.001 -8.37833 63.4576 -8.29953 63.8897 -8.124C64.3166 -7.95435 64.6848 -7.69313 64.9942 -7.34033L65.1025 -7.21685C65.4119 -6.86405 65.5764 -6.51216 65.5961 -6.1612C65.6229 -5.81341 65.5196 -5.48943 65.2862 -5.18926C65.0475 -4.89497 64.7031 -4.64762 64.253 -4.44722L62.5383 -3.68378L62.956 -3.2075L65.3352 -4.26677L66.1241 -3.36714L63.745 -2.30786L64.8124 -1.0907L63.3977 -0.460862L62.3303 -1.67802L61.3444 -1.23904ZM61.7494 -4.58341L63.3247 -5.28483C63.6463 -5.42797 63.8477 -5.6117 63.9292 -5.83601C64.0055 -6.06619 63.9405 -6.29889 63.7342 -6.53409L63.6569 -6.62229C63.4455 -6.86337 63.1804 -7.00699 62.8618 -7.05316C62.5503 -7.10252 62.2302 -7.05403 61.9015 -6.9077L60.3261 -6.20629L61.7494 -4.58341Z" fill="white"/>
<path d="M41.0461 77.7637L28.179 63.0916L42.2864 56.8106L55.1535 71.4826L51.3832 73.1613L40.7868 61.0784L34.22 64.0022L44.8164 76.085L41.0461 77.7637ZM68.3803 55.3647C69.3775 56.5017 70.1098 57.6139 70.5772 58.7011C71.0492 59.7671 71.23 60.7915 71.1196 61.774C71.0258 62.7491 70.5941 63.6556 69.8244 64.4936C69.0715 65.3241 67.9709 66.0617 66.5227 66.7065C65.0745 67.3513 63.6532 67.7364 62.2589 67.862C60.8692 67.9664 59.5364 67.8455 58.2606 67.4992C56.9894 67.1318 55.7706 66.5601 54.6041 65.7842C53.4542 65.0008 52.3807 64.0406 51.3835 62.9036C50.0499 61.383 49.1902 59.9276 48.8043 58.5374C48.435 57.1399 48.6043 55.8549 49.3121 54.6826C50.0246 53.4892 51.3546 52.4589 53.3021 51.5918C55.2331 50.7321 57.0991 50.3394 58.9002 50.4137C60.6892 50.4744 62.382 50.9398 63.9784 51.81C65.5795 52.6592 67.0468 53.8441 68.3803 55.3647ZM55.3716 61.1566C56.2726 62.184 57.2057 62.9972 58.1707 63.5962C59.1357 64.1951 60.1254 64.545 61.1396 64.6459C62.1539 64.7467 63.1853 64.5637 64.234 64.0967C65.316 63.615 66.0074 63.031 66.3082 62.3447C66.6256 61.6509 66.6097 60.8675 66.2606 59.9943C65.9281 59.1137 65.3113 58.1597 64.4103 57.1323C63.0527 55.5842 61.6399 54.5275 60.1718 53.962C58.7038 53.3965 57.1708 53.4695 55.5728 54.181C54.5075 54.6553 53.8161 55.2393 53.4987 55.933C53.1812 56.6268 53.1888 57.4139 53.5212 58.2945C53.8537 59.1751 54.4705 60.1291 55.3716 61.1566ZM75.9198 41.836L78.1725 44.4047L70.6818 47.7397L81.2963 59.8431L77.526 61.5218L64.6589 46.8497L75.9198 41.836ZM99.6792 51.6585L95.3172 48.7433L88.8253 51.6336L90.5905 55.7051L86.5206 57.5171L79.8916 39.982L84.5108 37.9253L103.749 49.8465L99.6792 51.6585ZM87.8398 43.7007C87.5523 43.5048 87.1858 43.2585 86.7403 42.9616C86.2947 42.6647 85.8432 42.3609 85.3856 42.0503C84.9281 41.7397 84.5376 41.466 84.2141 41.229C84.3711 41.5401 84.5549 41.9345 84.7656 42.4121C84.9808 42.8687 85.184 43.3116 85.3752 43.7408C85.5711 44.1488 85.7018 44.443 85.7674 44.6234L87.4855 48.6015L92.1297 46.5337L87.8398 43.7007ZM127.43 39.3029L105.008 49.2859L92.1412 34.6138L95.9115 32.9352L106.508 45.018L112.051 42.5501L101.455 30.4672L105.25 28.7775L115.846 40.8603L121.389 38.3924L110.793 26.3095L114.563 24.6309L127.43 39.3029ZM141.191 33.1762L130.929 37.7452L118.062 23.0731L128.324 18.5041L130.559 21.0522L124.067 23.9426L126.896 27.1688L132.939 24.4785L135.173 27.0266L129.131 29.7169L132.447 33.4979L138.939 30.6075L141.191 33.1762ZM158.509 25.4659L154.739 27.1445L149.188 20.8154L142.122 23.9614L147.672 30.2906L143.902 31.9692L131.035 17.2972L134.805 15.6185L139.851 21.3723L146.917 18.2262L141.871 12.4724L145.642 10.7938L158.509 25.4659ZM171.724 9.35311C172.721 10.4902 173.453 11.6023 173.921 12.6895C174.393 13.7556 174.574 14.7799 174.463 15.7624C174.369 16.7375 173.938 17.6441 173.168 18.482C172.415 19.3125 171.315 20.0501 169.866 20.6949C168.418 21.3397 166.997 21.7248 165.603 21.8504C164.213 21.9548 162.88 21.8339 161.604 21.4876C160.333 21.1202 159.114 20.5485 157.948 19.7726C156.798 18.9893 155.724 18.0291 154.727 16.892C153.394 15.3714 152.534 13.916 152.148 12.5258C151.779 11.1283 151.948 9.84333 152.656 8.67102C153.368 7.47759 154.698 6.44732 156.646 5.58021C158.577 4.7205 160.443 4.32782 162.244 4.40215C164.033 4.46278 165.726 4.92822 167.322 5.79846C168.923 6.6476 170.39 7.83248 171.724 9.35311ZM158.715 15.145C159.616 16.1724 160.549 16.9856 161.514 17.5846C162.479 18.1836 163.469 18.5334 164.483 18.6343C165.498 18.7351 166.529 18.5521 167.578 18.0852C168.66 17.6034 169.351 17.0194 169.652 16.3331C169.969 15.6394 169.953 14.8559 169.604 13.9827C169.272 13.1022 168.655 12.1481 167.754 11.1207C166.396 9.57266 164.984 8.5159 163.516 7.95041C162.047 7.38492 160.514 7.45791 158.916 8.16939C157.851 8.64371 157.16 9.22774 156.842 9.92147C156.525 10.6152 156.532 11.4024 156.865 12.2829C157.197 13.1635 157.814 14.1175 158.715 15.145Z" fill="white"/>
<line y1="-0.488801" x2="68.4321" y2="-0.488801" transform="matrix(0.913545 -0.406737 0.659347 0.751838 6.36372 21.5854)" stroke="#F7E794" stroke-width="0.977601"/>
<line y1="-0.488801" x2="68.4321" y2="-0.488801" transform="matrix(0.913545 -0.406737 0.659347 0.751838 6.36372 21.5854)" stroke="#F7E794" stroke-width="0.977601"/>
<line y1="-0.488801" x2="68.4321" y2="-0.488801" transform="matrix(0.913545 -0.406737 0.659347 0.751838 5.07455 20.1154)" stroke="#F7E794" stroke-width="0.977601"/>
<line y1="-0.488801" x2="68.4321" y2="-0.488801" transform="matrix(0.913545 -0.406737 0.659347 0.751838 5.07455 20.1154)" stroke="#F7E794" stroke-width="0.977601"/>
<line y1="-0.488801" x2="68.4321" y2="-0.488801" transform="matrix(0.913545 -0.406737 0.659347 0.751838 5.71915 20.8504)" stroke="white" stroke-width="0.977601"/>
</g>
<rect x="0.313602" y="0.0688061" width="138.369" height="84.138" rx="6.18076" transform="matrix(0.913545 -0.406737 0.659347 0.751838 -10.1784 11.5519)" stroke="url(#paint2_radial_3_1929)" stroke-width="0.398758"/>
<rect x="0.313602" y="0.0688061" width="138.369" height="84.138" rx="6.18076" transform="matrix(0.913545 -0.406737 0.659347 0.751838 -10.1784 11.5519)" stroke="url(#paint3_radial_3_1929)" stroke-width="0.398758"/>
<rect x="0.313602" y="0.0688061" width="138.369" height="84.138" rx="6.18076" transform="matrix(0.913545 -0.406737 0.659347 0.751838 -10.1784 11.5519)" stroke="url(#paint4_radial_3_1929)" stroke-width="0.398758"/>
</g>
<defs>
<filter id="filter0_d_3_1929" x="-54.5495" y="-74.0614" width="262.51" height="200" filterUnits="userSpaceOnUse" color-interpolation-filters="sRGB">
<feFlood flood-opacity="0" result="BackgroundImageFix"/>
<feColorMatrix in="SourceAlpha" type="matrix" values="0 0 0 0 0 0 0 0 0 0 0 0 0 0 0 0 0 0 127 0" result="hardAlpha"/>
<feOffset dx="-4.38933" dy="10.9733"/>
<feGaussianBlur stdDeviation="20"/>
<feComposite in2="hardAlpha" operator="out"/>
<feColorMatrix type="matrix" values="0 0 0 0 0.737549 0 0 0 0 0.651872 0 0 0 0 0.223485 0 0 0 1 0"/>
<feBlend mode="normal" in2="BackgroundImageFix" result="effect1_dropShadow_3_1929"/>
<feBlend mode="normal" in="SourceGraphic" in2="effect1_dropShadow_3_1929" result="shape"/>
</filter>
<filter id="filter1_f_3_1929" x="-14.9696" y="-41.1384" width="250.653" height="171.627" filterUnits="userSpaceOnUse" color-interpolation-filters="sRGB">
<feFlood flood-opacity="0" result="BackgroundImageFix"/>
<feBlend mode="normal" in="SourceGraphic" in2="BackgroundImageFix" result="shape"/>
<feGaussianBlur stdDeviation="14.3553" result="effect1_foregroundBlur_3_1929"/>
</filter>
<linearGradient id="paint0_linear_3_1929" x1="69.384" y1="0" x2="69.384" y2="84.5368" gradientUnits="userSpaceOnUse">
<stop stop-color="#FBEE88"/>
<stop offset="1" stop-color="#E0B330"/>
</linearGradient>
<linearGradient id="paint1_linear_3_1929" x1="88.1149" y1="25.5774" x2="107.849" y2="69.9009" gradientUnits="userSpaceOnUse">
<stop stop-color="#E0B330"/>
<stop offset="0.511012" stop-color="#FBEE88"/>
<stop offset="1" stop-color="#E0B330"/>
</linearGradient>
<radialGradient id="paint2_radial_3_1929" cx="0" cy="0" r="1" gradientUnits="userSpaceOnUse" gradientTransform="translate(168.32 31.947) rotate(174.425) scale(227.646 57.6884)">
<stop stop-color="white"/>
<stop offset="1" stop-color="white" stop-opacity="0"/>
</radialGradient>
<radialGradient id="paint3_radial_3_1929" cx="0" cy="0" r="1" gradientUnits="userSpaceOnUse" gradientTransform="translate(-12.4206 -49.1493) rotate(30.6396) scale(133.409 80.5988)">
<stop stop-color="white"/>
<stop offset="1" stop-color="white" stop-opacity="0"/>
</radialGradient>
<radialGradient id="paint4_radial_3_1929" cx="0" cy="0" r="1" gradientUnits="userSpaceOnUse" gradientTransform="translate(-55.6785 114.19) rotate(-5.33944) scale(170.775 43.0899)">
<stop stop-color="white"/>
<stop offset="1" stop-color="white" stop-opacity="0"/>
</radialGradient>
<clipPath id="clip0_3_1929">
<rect width="138.768" height="84.5368" rx="6.38013" transform="matrix(0.913545 -0.406737 0.659347 0.751838 -10.1602 11.4072)" fill="white"/>
</clipPath>
</defs>
</svg>
