<svg width="208" height="72" fill="none" xmlns="http://www.w3.org/2000/svg"><g filter="url(#filter0_d_3_1929)"><g clip-path="url(#clip0_3_1929)"><rect width="138.768" height="84.537" rx="6.38" transform="matrix(.91355 -.40674 .65935 .75184 -10.16 11.407)" fill="url(#paint0_linear_3_1929)"/><g filter="url(#filter1_f_3_1929)"><path d="M90.753 55.844C55.562 74.118 19.005 76.74 13.741 76.11l22.51 25.667 170.722-76.01-33.497-38.196c-3.601 18.174-47.531 49.997-82.723 68.272z" fill="url(#paint1_linear_3_1929)"/></g><path d="M14.074 21.671a4.79 4.79 0 01-1.717.421c-.58.03-1.13-.053-1.648-.247a3.413 3.413 0 01-1.331-.94l-.14-.16 1.372-.61.109.124c.288.329.66.531 1.114.607.449.07.902.003 1.359-.2.464-.207.742-.457.832-.75.097-.297.025-.584-.218-.86l-.077-.089a1.24 1.24 0 00-.574-.382 1.575 1.575 0 00-.685-.05 2.459 2.459 0 00-.731.202l-1.5.668-1.083-1.235 1.494-2.136-.124-.141-3.794 1.689-.882-1.006 5.316-2.366 1.315 1.499-1.395 1.995.124.14.396-.176a3.29 3.29 0 011.122-.266c.42-.032.836.024 1.25.167.408.137.775.39 1.1.761l.092.106c.35.4.54.802.567 1.207.022.399-.109.776-.393 1.132-.283.346-.706.645-1.27.896zm8.983-4.17l-1.099-1.253-3.686 1.641-1.145-1.305-.578-4.771 2.465-1.098 3.434 3.917 1.243-.554.882 1.006-1.243.553 1.098 1.252-1.371.611zm-4.36-1.2l2.38-1.059-2.8-3.193-.194.086.49 4.025.124.142zm10.134-1.2a4.675 4.675 0 01-1.746.421 3.826 3.826 0 01-1.61-.289 3.493 3.493 0 01-1.294-.932l-.077-.088 1.393-.62.07.08c.258.293.597.494 1.019.6.423.098.87.042 1.342-.168.472-.21.742-.474.812-.79.072-.327-.04-.658-.334-.993l-.077-.088a1.839 1.839 0 00-1.074-.613 1.95 1.95 0 00-1.198.129c-.208.092-.359.192-.453.3a.737.737 0 00-.178.323 1.165 1.165 0 00-.028.308l-1.661.74-3.032-3.458 5.122-2.281.897 1.023-3.75 1.67 1.322 1.508.193-.085a.901.901 0 01.096-.35c.06-.125.165-.253.317-.386s.36-.258.624-.376c.443-.197.914-.3 1.412-.31a3.5 3.5 0 011.464.293c.479.195.91.51 1.291.945l.093.106c.381.435.597.863.647 1.282.057.416-.048.806-.315 1.17-.272.358-.7.668-1.287.929zm6.607-3.114l-1.098-1.252-3.687 1.641-1.144-1.305-.578-4.77 2.465-1.098 3.434 3.916 1.243-.554.882 1.006-1.243.553 1.098 1.253-1.372.61zM31.08 10.79l2.38-1.06-2.8-3.192-.194.086.49 4.025.124.14zm12.652-2.322c-.886.395-1.772.511-2.659.35-.892-.167-1.696-.66-2.413-1.477L37.3 5.788c-.697-.794-.958-1.516-.783-2.166.17-.656.698-1.181 1.584-1.576.893-.397 1.787-.505 2.682-.323.897.173 1.693.656 2.39 1.45l1.36 1.552c.717.818.986 1.549.806 2.193-.178.635-.714 1.151-1.607 1.55zm-.882-1.005c.536-.239.823-.534.862-.887.046-.355-.127-.757-.52-1.204l-1.438-1.64c-.397-.453-.84-.73-1.326-.832a2.24 2.24 0 00-1.445.153c-.493.22-.773.511-.84.877-.06.362.1.76.481 1.195l1.44 1.64c.407.465.842.758 1.305.879.466.111.96.05 1.481-.181zm7.403-1.898c-.887.394-1.773.511-2.66.35-.89-.167-1.695-.66-2.412-1.477L43.82 2.885c-.696-.794-.957-1.516-.782-2.166.17-.656.697-1.182 1.583-1.576.894-.398 1.788-.505 2.682-.323.897.173 1.694.656 2.39 1.45l1.361 1.552c.717.818.985 1.548.805 2.193-.178.635-.713 1.151-1.606 1.549zm-.882-1.006c.536-.238.823-.534.861-.886.046-.356-.127-.757-.519-1.204L48.273.828c-.397-.453-.839-.73-1.325-.833a2.24 2.24 0 00-1.446.153c-.493.22-.773.512-.84.877-.06.362.1.76.482 1.196l1.439 1.64c.407.465.843.758 1.306.878.466.112.96.052 1.48-.18zm7.402-1.897c-.886.394-1.772.51-2.659.35-.891-.168-1.696-.66-2.412-1.477L50.339-.018c-.696-.794-.956-1.516-.782-2.166.17-.656.698-1.182 1.584-1.576.893-.398 1.787-.506 2.682-.323.897.173 1.693.656 2.39 1.45l1.36 1.552c.718.817.986 1.548.806 2.192-.178.636-.714 1.152-1.607 1.55zm-.882-1.006c.536-.238.823-.534.862-.886.046-.356-.127-.757-.52-1.204l-1.438-1.64c-.397-.453-.839-.73-1.326-.833a2.24 2.24 0 00-1.445.153c-.493.22-.773.512-.84.877-.06.362.1.76.482 1.196l1.438 1.64c.408.465.843.758 1.307.878.465.112.959.052 1.48-.18zm5.454-2.894l-.789-.9.986-.439-.417-.476-.986.439-.79-.9.987-.439-2.352-2.68 3.13-1.394a3.722 3.722 0 011.407-.332c.481-.018.938.06 1.37.236.427.17.795.43 1.104.784l.109.123c.309.353.473.705.493 1.056a1.37 1.37 0 01-.31.972c-.239.294-.583.541-1.033.742l-1.715.763.418.477 2.38-1.06.788.9-2.379 1.06 1.067 1.216-1.414.63-1.068-1.217-.986.439zm.405-3.344l1.576-.702c.321-.143.523-.327.604-.551.076-.23.011-.463-.195-.698l-.077-.088a1.267 1.267 0 00-.795-.431 1.68 1.68 0 00-.96.145l-1.576.702 1.423 1.623zM41.046 77.764L28.18 63.092l14.107-6.281 12.867 14.672-3.77 1.678-10.596-12.083-6.567 2.924 10.596 12.083-3.77 1.679zm27.334-22.4c.998 1.138 1.73 2.25 2.197 3.337.472 1.066.653 2.09.543 3.073-.094.975-.526 1.882-1.296 2.72-.752.83-1.853 1.568-3.301 2.213-1.448.644-2.87 1.03-4.264 1.155a11.785 11.785 0 01-3.998-.363 13.198 13.198 0 01-3.657-1.715 17.095 17.095 0 01-3.22-2.88c-1.334-1.521-2.194-2.976-2.58-4.367-.369-1.397-.2-2.682.508-3.854.713-1.194 2.043-2.224 3.99-3.091 1.931-.86 3.797-1.253 5.598-1.178 1.79.06 3.482.526 5.078 1.396 1.601.85 3.069 2.034 4.402 3.555zm-13.008 5.793c.9 1.027 1.834 1.84 2.799 2.44.965.598 1.954.948 2.969 1.049 1.014.1 2.045-.082 3.094-.55 1.082-.481 1.773-1.065 2.074-1.751.318-.694.302-1.477-.047-2.35-.333-.881-.95-1.835-1.85-2.863-1.358-1.548-2.771-2.604-4.24-3.17-1.467-.566-3-.493-4.598.219-1.066.474-1.757 1.058-2.074 1.752-.318.694-.31 1.48.022 2.361.333.881.95 1.835 1.85 2.863zM75.92 41.836l2.252 2.569-7.49 3.335 10.614 12.103-3.77 1.679L64.659 46.85l11.26-5.014zm23.76 9.822l-4.363-2.915-6.492 2.89 1.766 4.072-4.07 1.812-6.63-17.535 4.62-2.057 19.238 11.922-4.07 1.811zm-11.84-7.957c-.288-.196-.654-.443-1.1-.74-.445-.296-.897-.6-1.354-.91a41.49 41.49 0 01-1.172-.822c.157.311.34.706.552 1.183.215.457.418.9.61 1.329.195.408.326.702.391.882l1.719 3.979 4.644-2.068-4.29-2.833zm39.59-4.398l-22.422 9.983-12.867-14.672 3.77-1.679 10.597 12.083 5.543-2.468-10.596-12.083 3.795-1.69 10.596 12.083 5.543-2.468-10.596-12.083 3.77-1.678 12.867 14.672zm13.761-6.127l-10.262 4.57-12.867-14.673 10.262-4.569 2.235 2.548-6.492 2.89 2.829 3.227 6.043-2.69 2.234 2.548-6.042 2.69 3.316 3.78 6.492-2.89 2.252 2.57zm17.318-7.71l-3.77 1.678-5.551-6.329-7.066 3.146 5.55 6.33-3.77 1.678-12.867-14.672 3.77-1.679 5.046 5.754 7.066-3.146-5.046-5.754 3.771-1.678 12.867 14.672zm13.215-16.113c.997 1.137 1.729 2.25 2.197 3.337.472 1.066.653 2.09.542 3.072-.094.976-.525 1.882-1.295 2.72-.753.83-1.853 1.568-3.302 2.213-1.448.645-2.869 1.03-4.263 1.155a11.79 11.79 0 01-3.999-.362 13.192 13.192 0 01-3.656-1.715 17.08 17.08 0 01-3.221-2.881c-1.333-1.52-2.193-2.976-2.579-4.366-.369-1.398-.2-2.683.508-3.855.712-1.193 2.042-2.224 3.99-3.09 1.931-.86 3.797-1.253 5.598-1.179a11.27 11.27 0 015.078 1.396c1.601.85 3.068 2.034 4.402 3.555zm-13.009 5.792c.901 1.027 1.834 1.84 2.799 2.44.965.599 1.955.948 2.969 1.05 1.015.1 2.046-.083 3.095-.55 1.082-.482 1.773-1.066 2.074-1.752.317-.694.301-1.477-.048-2.35-.332-.88-.949-1.835-1.85-2.862-1.358-1.548-2.77-2.605-4.238-3.17-1.469-.566-3.002-.493-4.6.218-1.065.475-1.756 1.059-2.074 1.752-.317.694-.31 1.481.023 2.362.332.88.949 1.835 1.85 2.862z" fill="#fff"/><path transform="matrix(.91355 -.40674 .65935 .75184 6.364 21.585)" stroke="#F7E794" stroke-width=".978" d="M0-.489h68.432M0-.489h68.432"/><path transform="matrix(.91355 -.40674 .65935 .75184 5.075 20.115)" stroke="#F7E794" stroke-width=".978" d="M0-.489h68.432M0-.489h68.432"/><path transform="matrix(.91355 -.40674 .65935 .75184 5.72 20.85)" stroke="#fff" stroke-width=".978" d="M0-.489h68.432"/></g><rect x=".314" y=".069" width="138.369" height="84.138" rx="6.181" transform="matrix(.91355 -.40674 .65935 .75184 -10.178 11.552)" stroke="url(#paint2_radial_3_1929)" stroke-width=".399"/><rect x=".314" y=".069" width="138.369" height="84.138" rx="6.181" transform="matrix(.91355 -.40674 .65935 .75184 -10.178 11.552)" stroke="url(#paint3_radial_3_1929)" stroke-width=".399"/><rect x=".314" y=".069" width="138.369" height="84.138" rx="6.181" transform="matrix(.91355 -.40674 .65935 .75184 -10.178 11.552)" stroke="url(#paint4_radial_3_1929)" stroke-width=".399"/></g><defs><radialGradient id="paint2_radial_3_1929" cx="0" cy="0" r="1" gradientUnits="userSpaceOnUse" gradientTransform="rotate(174.425 83.382 20.071) scale(227.646 57.6884)"><stop stop-color="#fff"/><stop offset="1" stop-color="#fff" stop-opacity="0"/></radialGradient><radialGradient id="paint3_radial_3_1929" cx="0" cy="0" r="1" gradientUnits="userSpaceOnUse" gradientTransform="matrix(114.78377 67.99006 -41.07607 69.3464 -12.42 -49.15)"><stop stop-color="#fff"/><stop offset="1" stop-color="#fff" stop-opacity="0"/></radialGradient><radialGradient id="paint4_radial_3_1929" cx="0" cy="0" r="1" gradientUnits="userSpaceOnUse" gradientTransform="matrix(170.03399 -15.89164 4.00977 42.90293 -55.678 114.19)"><stop stop-color="#fff"/><stop offset="1" stop-color="#fff" stop-opacity="0"/></radialGradient><linearGradient id="paint0_linear_3_1929" x1="69.384" y1="0" x2="69.384" y2="84.537" gradientUnits="userSpaceOnUse"><stop stop-color="#FBEE88"/><stop offset="1" stop-color="#E0B330"/></linearGradient><linearGradient id="paint1_linear_3_1929" x1="88.115" y1="25.577" x2="107.849" y2="69.901" gradientUnits="userSpaceOnUse"><stop stop-color="#E0B330"/><stop offset=".511" stop-color="#FBEE88"/><stop offset="1" stop-color="#E0B330"/></linearGradient><filter id="filter0_d_3_1929" x="-54.55" y="-74.061" width="262.51" height="200" filterUnits="userSpaceOnUse" color-interpolation-filters="sRGB"><feFlood flood-opacity="0" result="BackgroundImageFix"/><feColorMatrix in="SourceAlpha" values="0 0 0 0 0 0 0 0 0 0 0 0 0 0 0 0 0 0 127 0" result="hardAlpha"/><feOffset dx="-4.389" dy="10.973"/><feGaussianBlur stdDeviation="20"/><feComposite in2="hardAlpha" operator="out"/><feColorMatrix values="0 0 0 0 0.737549 0 0 0 0 0.651872 0 0 0 0 0.223485 0 0 0 1 0"/><feBlend in2="BackgroundImageFix" result="effect1_dropShadow_3_1929"/><feBlend in="SourceGraphic" in2="effect1_dropShadow_3_1929" result="shape"/></filter><filter id="filter1_f_3_1929" x="-14.97" y="-41.138" width="250.653" height="171.627" filterUnits="userSpaceOnUse" color-interpolation-filters="sRGB"><feFlood flood-opacity="0" result="BackgroundImageFix"/><feBlend in="SourceGraphic" in2="BackgroundImageFix" result="shape"/><feGaussianBlur stdDeviation="14.355" result="effect1_foregroundBlur_3_1929"/></filter><clipPath id="clip0_3_1929"><rect width="138.768" height="84.537" rx="6.38" transform="matrix(.91355 -.40674 .65935 .75184 -10.16 11.407)" fill="#fff"/></clipPath></defs></svg>