<svg width="203" height="72" fill="none" xmlns="http://www.w3.org/2000/svg"><g filter="url(#filter0_d_1_149)"><g clip-path="url(#clip0_1_149)"><rect width="138.76" height="84.532" rx="6.38" transform="matrix(.91355 -.40674 .65935 .75184 -10.16 11.41)" fill="#5B82FF"/><path d="M14.073 21.674a4.792 4.792 0 01-1.717.421c-.58.03-1.13-.053-1.648-.247a3.414 3.414 0 01-1.33-.94l-.14-.16 1.372-.61.108.123c.289.33.66.532 1.114.608.449.07.902.003 1.359-.2.464-.207.742-.457.832-.75.097-.298.025-.584-.218-.86l-.077-.089a1.241 1.241 0 00-.574-.382 1.576 1.576 0 00-.685-.05 2.456 2.456 0 00-.73.202l-1.501.668-1.083-1.235 1.494-2.136-.124-.141-3.794 1.689-.881-1.006 5.315-2.366 1.315 1.5-1.395 1.994.124.14.396-.176a3.3 3.3 0 011.122-.267c.42-.03.836.025 1.25.168.408.137.775.39 1.1.761l.092.106c.351.4.54.802.567 1.207.022.399-.109.776-.393 1.131-.283.347-.706.646-1.27.897zm8.982-4.17l-1.098-1.253-3.687 1.641-1.144-1.305-.578-4.77 2.465-1.098 3.434 3.916 1.243-.554.882 1.006-1.243.553 1.098 1.252-1.372.611zm-4.359-1.2l2.38-1.059-2.8-3.192-.194.085.49 4.025.124.142zm10.134-1.2a4.679 4.679 0 01-1.746.422 3.827 3.827 0 01-1.61-.29 3.493 3.493 0 01-1.294-.932l-.077-.088 1.393-.62.07.08c.257.293.597.494 1.018.6.424.098.871.042 1.343-.168.471-.21.742-.474.811-.79.072-.327-.04-.657-.333-.993l-.078-.088a1.839 1.839 0 00-1.074-.613c-.42-.083-.82-.04-1.198.129-.207.092-.358.192-.453.3a.737.737 0 00-.177.324 1.165 1.165 0 00-.029.307l-1.66.74-3.033-3.458 5.123-2.28.897 1.023-3.75 1.67 1.322 1.508.193-.086a.9.9 0 01.096-.35c.06-.124.165-.253.316-.386.152-.133.36-.258.624-.376.443-.197.914-.3 1.412-.31a3.51 3.51 0 011.464.293c.48.195.91.51 1.291.946l.093.105c.382.436.597.863.647 1.282.057.416-.048.806-.315 1.17-.271.358-.7.668-1.286.929zm6.607-3.113l-1.099-1.253-3.686 1.642-1.145-1.306-.578-4.77 2.465-1.098 3.434 3.916 1.243-.553.882 1.005-1.243.553 1.098 1.253-1.371.61zm-4.36-1.199l2.38-1.06-2.8-3.192-.193.086.49 4.025.123.141zm12.651-2.321c-.886.394-1.772.51-2.658.35-.892-.168-1.696-.66-2.413-1.477L37.296 5.79c-.696-.793-.957-1.515-.782-2.165.17-.656.698-1.182 1.584-1.576.893-.398 1.787-.505 2.681-.323.897.173 1.693.656 2.39 1.45l1.36 1.552c.718.817.986 1.548.806 2.192-.178.636-.714 1.152-1.607 1.55zm-.881-1.006c.535-.238.823-.534.861-.886.046-.356-.127-.757-.519-1.204l-1.438-1.64c-.398-.453-.84-.73-1.326-.833a2.24 2.24 0 00-1.446.153c-.493.22-.773.512-.84.877-.06.362.1.76.482 1.196l1.439 1.64c.407.465.843.757 1.306.878.466.112.96.051 1.48-.18zm7.402-1.897c-.886.394-1.773.51-2.659.35-.892-.168-1.696-.66-2.412-1.477l-1.362-1.553c-.696-.793-.956-1.515-.782-2.165.17-.656.698-1.182 1.584-1.576.893-.398 1.787-.505 2.682-.323.896.173 1.693.656 2.389 1.45l1.361 1.552c.717.817.985 1.548.805 2.192-.178.636-.713 1.152-1.606 1.55zm-.882-1.006c.536-.238.823-.534.862-.886.045-.356-.128-.757-.52-1.204L48.271.832c-.397-.453-.84-.73-1.326-.833A2.24 2.24 0 0045.5.152c-.493.22-.773.512-.84.877-.06.362.1.76.482 1.196l1.438 1.64c.408.465.843.757 1.306.878.466.112.96.051 1.48-.18zm7.402-1.897c-.886.394-1.772.51-2.659.35-.891-.168-1.695-.66-2.412-1.477L50.337-.015c-.697-.793-.957-1.515-.782-2.165.17-.656.697-1.182 1.583-1.576.893-.398 1.787-.505 2.682-.323.897.173 1.693.656 2.39 1.45l1.36 1.552c.717.817.986 1.548.806 2.192-.179.636-.714 1.152-1.607 1.55zm-.882-1.006c.536-.238.823-.534.862-.886.046-.356-.127-.757-.52-1.204l-1.438-1.64c-.397-.453-.839-.73-1.326-.833a2.24 2.24 0 00-1.445.153c-.493.22-.773.512-.84.877-.06.362.1.76.482 1.196L53.1.962c.408.465.843.757 1.307.878.465.112.959.051 1.48-.18zm5.454-2.894l-.789-.9.986-.439-.418-.476-.986.44-.789-.9.986-.44-2.351-2.68 3.13-1.394a3.721 3.721 0 011.407-.332c.48-.018.937.06 1.37.236.426.17.794.431 1.103.784l.109.123c.31.353.474.705.493 1.056a1.37 1.37 0 01-.31.972c-.238.294-.582.542-1.033.742l-1.714.763.418.477 2.379-1.06.788.9-2.379 1.06 1.068 1.216-1.415.63-1.067-1.217-.986.439zm.405-3.344l1.575-.702c.322-.143.523-.327.605-.55.076-.231.01-.464-.195-.699l-.078-.088a1.267 1.267 0 00-.795-.43 1.68 1.68 0 00-.96.145l-1.575.7 1.423 1.624zM41.05 77.766L28.185 63.095l14.107-6.281 12.866 14.671-3.77 1.679-10.596-12.082-6.566 2.923 10.596 12.082-3.77 1.679zm27.334-22.398c.997 1.137 1.729 2.25 2.196 3.336.472 1.066.653 2.09.543 3.073-.094.975-.526 1.882-1.296 2.72-.752.83-1.853 1.568-3.301 2.212-1.448.645-2.87 1.03-4.264 1.156a11.784 11.784 0 01-3.998-.363 13.197 13.197 0 01-3.656-1.715 17.085 17.085 0 01-3.22-2.88c-1.334-1.52-2.194-2.976-2.58-4.366-.369-1.398-.2-2.683.508-3.855.713-1.193 2.043-2.224 3.99-3.09 1.93-.86 3.797-1.253 5.598-1.179a11.27 11.27 0 015.078 1.397c1.6.849 3.068 2.034 4.401 3.554zm-13.01 5.792c.901 1.027 1.834 1.84 2.8 2.44.964.598 1.954.948 2.968 1.049 1.014.1 2.046-.082 3.094-.55 1.082-.481 1.774-1.065 2.074-1.751.318-.694.302-1.477-.047-2.35-.333-.881-.95-1.835-1.85-2.862-1.358-1.548-2.77-2.605-4.239-3.17-1.467-.566-3-.493-4.598.218-1.066.475-1.757 1.059-2.074 1.753-.318.693-.31 1.48.022 2.36.333.881.95 1.835 1.85 2.863zm20.548-19.32l2.252 2.569-7.49 3.335 10.614 12.102-3.77 1.679-12.867-14.671 11.26-5.014zm23.758 9.822l-4.362-2.915-6.492 2.89 1.766 4.072-4.07 1.811-6.629-17.534 4.62-2.056 19.236 11.92-4.07 1.812zm-11.84-7.957c-.287-.196-.653-.442-1.099-.74-.445-.296-.897-.6-1.354-.91a41.49 41.49 0 01-1.172-.822c.157.311.341.706.552 1.183.215.457.418.9.61 1.329.195.408.326.702.392.882l1.718 3.978 4.644-2.067-4.29-2.833zm39.589-4.398l-22.421 9.983-12.866-14.672 3.77-1.678 10.596 12.082 5.543-2.468-10.596-12.082 3.795-1.69 10.596 12.083 5.543-2.468-10.596-12.082 3.77-1.679 12.866 14.671zm13.76-6.126l-10.261 4.569-12.867-14.672 10.262-4.568 2.235 2.547-6.492 2.89 2.829 3.227 6.042-2.69 2.235 2.548-6.042 2.69 3.315 3.78 6.492-2.89 2.252 2.569zm17.317-7.71l-3.77 1.678-5.55-6.328-7.066 3.146 5.55 6.328-3.77 1.679-12.866-14.671 3.77-1.679 5.046 5.754 7.065-3.146-5.045-5.754 3.77-1.678 12.866 14.67zm13.215-16.112c.997 1.137 1.729 2.25 2.196 3.336.472 1.066.653 2.09.543 3.073-.094.975-.526 1.882-1.295 2.72-.753.83-1.854 1.567-3.302 2.212-1.448.645-2.869 1.03-4.264 1.156a11.786 11.786 0 01-3.998-.363 13.191 13.191 0 01-3.656-1.715 17.081 17.081 0 01-3.22-2.88c-1.334-1.521-2.194-2.976-2.579-4.366-.37-1.398-.2-2.683.507-3.855.713-1.193 2.043-2.224 3.99-3.09 1.931-.86 3.797-1.253 5.598-1.179a11.27 11.27 0 015.078 1.397c1.601.849 3.068 2.034 4.402 3.554zm-13.009 5.792c.901 1.027 1.834 1.84 2.799 2.44.965.598 1.955.948 2.969 1.049 1.014.1 2.046-.082 3.094-.55 1.082-.481 1.774-1.065 2.074-1.751.318-.694.302-1.477-.047-2.35-.333-.881-.949-1.835-1.85-2.863-1.358-1.547-2.771-2.604-4.239-3.17-1.467-.565-3-.492-4.598.22-1.066.474-1.757 1.058-2.074 1.751-.318.694-.31 1.481.022 2.362.333.88.949 1.834 1.85 2.862z" fill="#fff"/><path transform="matrix(.91355 -.40674 .65935 .75184 6.363 21.588)" stroke="#5B82FF" stroke-width=".978" d="M0-.489h68.428M0-.489h68.428"/><path transform="matrix(.91355 -.40674 .65935 .75184 5.074 20.118)" stroke="#5B82FF" stroke-width=".978" d="M0-.489h68.428M0-.489h68.428"/><path transform="matrix(.91355 -.40674 .65935 .75184 5.718 20.853)" stroke="#fff" stroke-width=".978" d="M0-.489h68.428"/></g><rect x=".314" y=".069" width="138.362" height="84.133" rx="6.18" transform="matrix(.91355 -.40674 .65935 .75184 -10.178 11.555)" stroke="url(#paint0_radial_1_149)" stroke-width=".399"/><rect x=".314" y=".069" width="138.362" height="84.133" rx="6.18" transform="matrix(.91355 -.40674 .65935 .75184 -10.178 11.555)" stroke="url(#paint1_radial_1_149)" stroke-width=".399"/><rect x=".314" y=".069" width="138.362" height="84.133" rx="6.18" transform="matrix(.91355 -.40674 .65935 .75184 -10.178 11.555)" stroke="url(#paint2_radial_1_149)" stroke-width=".399"/></g><defs><radialGradient id="paint0_radial_1_149" cx="0" cy="0" r="1" gradientUnits="userSpaceOnUse" gradientTransform="rotate(174.425 83.378 20.07) scale(227.633 57.6853)"><stop stop-color="#fff"/><stop offset="1" stop-color="#fff" stop-opacity="0"/></radialGradient><radialGradient id="paint1_radial_1_149" cx="0" cy="0" r="1" gradientUnits="userSpaceOnUse" gradientTransform="rotate(30.64 83.493 -47.242) scale(133.401 80.5945)"><stop stop-color="#fff"/><stop offset="1" stop-color="#fff" stop-opacity="0"/></radialGradient><radialGradient id="paint2_radial_1_149" cx="0" cy="0" r="1" gradientUnits="userSpaceOnUse" gradientTransform="matrix(170.02415 -15.8894 4.00923 42.90067 -55.671 114.174)"><stop stop-color="#fff"/><stop offset="1" stop-color="#fff" stop-opacity="0"/></radialGradient><clipPath id="clip0_1_149"><rect width="138.76" height="84.532" rx="6.38" transform="matrix(.91355 -.40674 .65935 .75184 -10.16 11.41)" fill="#fff"/></clipPath><filter id="filter0_d_1_149" x="-53.007" y="-66.453" width="255.952" height="193.446" filterUnits="userSpaceOnUse" color-interpolation-filters="sRGB"><feFlood flood-opacity="0" result="BackgroundImageFix"/><feColorMatrix in="SourceAlpha" values="0 0 0 0 0 0 0 0 0 0 0 0 0 0 0 0 0 0 127 0" result="hardAlpha"/><feOffset dx="-6.121" dy="15.303"/><feGaussianBlur stdDeviation="18.363"/><feComposite in2="hardAlpha" operator="out"/><feColorMatrix values="0 0 0 0 0 0 0 0 0 0 0 0 0 0 0 0 0 0 0.3 0"/><feBlend in2="BackgroundImageFix" result="effect1_dropShadow_1_149"/><feBlend in="SourceGraphic" in2="effect1_dropShadow_1_149" result="shape"/></filter></defs></svg>