<svg width="20" height="20" fill="none" xmlns="http://www.w3.org/2000/svg"><path fill-rule="evenodd" clip-rule="evenodd" d="M15.675 5.996a.563.563 0 010 .782l-7.057 7.227a.532.532 0 01-.765 0l-3.528-3.613a.563.563 0 010-.783.532.532 0 01.764 0l3.147 3.221 6.674-6.834a.532.532 0 01.765 0z" fill="#28906F"/><path fill-rule="evenodd" clip-rule="evenodd" d="M15.913 5.763a.896.896 0 010 1.248l-7.057 7.227c-.341.35-.9.35-1.241 0l-3.529-3.614a.896.896 0 010-1.248c.342-.35.9-.35 1.242 0l2.908 2.977 6.436-6.59c.342-.35.9-.35 1.241 0zM8.236 12.83L5.089 9.61a.532.532 0 00-.764 0 .563.563 0 000 .783l3.528 3.613a.532.532 0 00.765 0l7.057-7.227a.563.563 0 000-.782.532.532 0 00-.765 0L8.236 12.83z" fill="#28906F"/></svg>