<svg width="32" height="32" fill="none" xmlns="http://www.w3.org/2000/svg"><path d="M28.707 14.493l-2.027-2.026c-.347-.347-.627-1.027-.627-1.507V8.08a2.14 2.14 0 00-2.133-2.133h-2.867c-.48 0-1.16-.28-1.506-.627L17.52 3.293a2.14 2.14 0 00-3.013 0L12.453 5.32c-.333.347-1.013.627-1.506.627H8.08A2.14 2.14 0 005.947 8.08v2.867c0 .48-.28 1.16-.627 1.506L3.293 14.48a2.14 2.14 0 000 3.013L5.32 19.52c.347.347.627 1.027.627 1.507v2.866a2.14 2.14 0 002.133 2.134h2.867c.48 0 1.16.28 1.506.626l2.027 2.027a2.14 2.14 0 003.013 0l2.027-2.027c.347-.346 1.027-.626 1.507-.626h2.866a2.14 2.14 0 002.134-2.134v-2.866c0-.48.28-1.16.626-1.507l2.027-2.027a2.078 2.078 0 00.027-3zM10.667 12c0-.733.6-1.333 1.333-1.333s1.333.6 1.333 1.333-.586 1.333-1.333 1.333c-.733 0-1.333-.6-1.333-1.333zm2.04 8.707A.99.99 0 0112 21a.99.99 0 01-.707-.293 1.006 1.006 0 010-1.414l8-8a1.006 1.006 0 011.414 0 1.006 1.006 0 010 1.414l-8 8zm7.293.626A1.34 1.34 0 0118.653 20c0-.733.6-1.333 1.334-1.333.733 0 1.333.6 1.333 1.333s-.587 1.333-1.32 1.333z" fill="#0E0F11"/></svg>