<svg width="32" height="32" fill="none" xmlns="http://www.w3.org/2000/svg"><path d="M20.787 16.533v5.427c0 .48-.054.933-.174 1.347-.493 1.96-2.12 3.186-4.36 3.186h-3.626L8.6 29.173c-.6.414-1.4-.026-1.4-.746v-1.934c-1.36 0-2.493-.453-3.28-1.24-.8-.8-1.253-1.933-1.253-3.293v-5.427c0-2.533 1.573-4.28 4-4.506.173-.014.346-.027.533-.027h9.053c2.72 0 4.534 1.813 4.534 4.533z" fill="#0E0F11"/><path d="M23.667 20.8c1.693 0 3.12-.56 4.106-1.56 1-.987 1.56-2.413 1.56-4.107v-6.8a5.662 5.662 0 00-5.666-5.666H12.333a5.662 5.662 0 00-5.666 5.666v1a.66.66 0 00.666.667h8.92a6.527 6.527 0 016.534 6.533v3.6a.66.66 0 00.666.667h.214z" fill="#0E0F11"/></svg>