<svg width="20" height="20" fill="none" xmlns="http://www.w3.org/2000/svg"><g filter="url(#filter0_b_1_113)"><path d="M10 0c1.875.026 3.555.482 5.04 1.367a9.907 9.907 0 013.593 3.594C19.518 6.445 19.974 8.125 20 10c-.026 1.875-.482 3.555-1.367 5.04a9.907 9.907 0 01-3.594 3.593C13.555 19.518 11.875 19.974 10 20c-1.875-.026-3.555-.482-5.04-1.367a9.907 9.907 0 01-3.593-3.594C.482 13.555.026 11.875 0 10c.026-1.875.482-3.555 1.367-5.04a9.907 9.907 0 013.594-3.593C6.445.482 8.125.026 10 0zm0 15.625c.338 0 .625-.117.86-.352.26-.234.39-.533.39-.898s-.13-.664-.39-.898a1.17 1.17 0 00-.86-.352c-.781.078-1.198.495-1.25 1.25 0 .365.117.664.352.898.234.235.533.352.898.352zm2.695-5.547c.886-.573 1.341-1.354 1.367-2.344-.025-.78-.299-1.432-.82-1.953-.52-.495-1.185-.755-1.992-.781H9.258c-.755.026-1.393.286-1.914.781-.495.521-.755 1.172-.782 1.953.053.573.365.886.938.938.573-.052.885-.365.938-.938.026-.52.312-.807.859-.859h1.992c.547.052.846.339.899.86 0 .338-.144.585-.43.742L9.53 9.805c-.312.208-.469.482-.469.82v.625c.053.573.365.885.938.938.573-.053.885-.365.938-.938v-.078l1.757-1.094z" fill="#fff" fill-opacity=".6"/></g><defs><filter id="filter0_b_1_113" x="-16" y="-16" width="52" height="52" filterUnits="userSpaceOnUse" color-interpolation-filters="sRGB"><feFlood flood-opacity="0" result="BackgroundImageFix"/><feGaussianBlur in="BackgroundImageFix" stdDeviation="8"/><feComposite in2="SourceAlpha" operator="in" result="effect1_backgroundBlur_1_113"/><feBlend in="SourceGraphic" in2="effect1_backgroundBlur_1_113" result="shape"/></filter></defs></svg>